<svg width="128" height="128" viewBox="0 0 128 128" fill="none" xmlns="http://www.w3.org/2000/svg">
<path fill-rule="evenodd" clip-rule="evenodd" d="M66.4966 102.673L88.9659 73.8484C90.3447 72.0795 90.3447 69.2117 88.9659 67.4428C87.5871 65.674 85.3515 65.674 83.9727 67.4428L67.5307 88.5356L67.5307 5H60.4693L60.4693 88.5356L44.0273 67.4428C42.6485 65.674 40.4129 65.674 39.0341 67.4428C37.6553 69.2117 37.6553 72.0795 39.0341 73.8484L61.5034 102.673C62.8822 104.442 65.1178 104.442 66.4966 102.673ZM64 124C67.3137 124 70 121.314 70 118C70 114.686 67.3137 112 64 112C60.6863 112 58 114.686 58 118C58 121.314 60.6863 124 64 124Z" fill="#FAFAFA"/>
</svg>
