<svg width="42" height="42" viewBox="0 0 42 42" fill="none" xmlns="http://www.w3.org/2000/svg">
<path fill-rule="evenodd" clip-rule="evenodd" d="M18.7289 1.30821L9.22267 8.00493C8.63932 8.41587 8.63932 9.08214 9.22267 9.49308C9.80602 9.90403 10.7518 9.90403 11.3352 9.49308L18.2914 4.59273L18.2914 24H21.2789L21.2789 4.59273L28.2351 9.49308C28.8185 9.90403 29.7643 9.90403 30.3476 9.49308C30.931 9.08214 30.931 8.41587 30.3476 8.00492L20.8414 1.30821C20.2581 0.897264 19.3123 0.897265 18.7289 1.30821ZM8.79883 37.0898H12.7148L13.4766 40H16.543L12.0703 25.7813H9.44336L5 40H8.03711L8.79883 37.0898ZM12.0801 34.6973H9.42383L10.752 29.6289L12.0801 34.6973ZM25.791 37.6172H20.752V25.7813H17.8809V40H25.791V37.6172ZM35.3613 37.6172H30.3223V25.7813H27.4512V40H35.3613V37.6172Z" fill="white"/>
</svg>
