<svg width="128" height="128" viewBox="0 0 128 128" fill="none" xmlns="http://www.w3.org/2000/svg">
<path fill-rule="evenodd" clip-rule="evenodd" d="M61.5034 25.3266L39.0341 54.1516C37.6553 55.9205 37.6553 58.7883 39.0341 60.5572C40.4129 62.326 42.6485 62.326 44.0273 60.5572L60.4693 39.4644L60.4693 123L67.5307 123L67.5307 39.4644L83.9727 60.5572C85.3515 62.326 87.587 62.326 88.9659 60.5572C90.3447 58.7883 90.3447 55.9205 88.9659 54.1516L66.4966 25.3266C65.1177 23.5578 62.8822 23.5578 61.5034 25.3266ZM64 4C60.6863 4 58 6.6863 58 10C58 13.3137 60.6863 16 64 16C67.3137 16 70 13.3137 70 10C70 6.6863 67.3137 4 64 4Z" fill="#FAFAFA"/>
</svg>
