<svg width="42" height="42" viewBox="0 0 42 42" fill="none" xmlns="http://www.w3.org/2000/svg">
<path fill-rule="evenodd" clip-rule="evenodd" d="M10.0137 13.0898H13.9297L14.6914 16H17.7578L13.2852 1.78125H10.6582L6.21484 16H9.25195L10.0137 13.0898ZM13.2949 10.6973H10.6387L11.9668 5.62891L13.2949 10.6973ZM27.0059 13.6172H21.9668V1.78125H19.0957V16H27.0059V13.6172ZM36.5762 13.6172H31.5371V1.78125H28.666V16H36.5762V13.6172ZM22.0562 40.6918L31.5625 33.9951C32.1458 33.5841 32.1458 32.9179 31.5625 32.5069C30.9791 32.096 30.0333 32.096 29.45 32.5069L22.4938 37.4073V18H19.5062V37.4073L12.55 32.5069C11.9667 32.096 11.0209 32.096 10.4375 32.5069C9.85416 32.9179 9.85416 33.5841 10.4375 33.9951L19.9438 40.6918C20.5271 41.1027 21.4729 41.1027 22.0562 40.6918Z" fill="white"/>
</svg>
